<?xml version="1.0" encoding="UTF-8" standalone="no"?>
<svg x="0px" y="0px" viewBox="0 0 20 20" version="1.1" xmlns="http://www.w3.org/2000/svg" xmlns:xlink="http://www.w3.org/1999/xlink">
    <!-- Generator: Sketch 3.7.2 (28276) - http://www.bohemiancoding.com/sketch -->
    <title>Slice 1</title>
    <desc>Created with Sketch.</desc>
    <defs></defs>
    <g id="Page-1" stroke="none" stroke-width="1" fill="none" fill-rule="evenodd">
        <g id="app-store">
            <path d="M10,0 C4.47708333,0 0,4.47708333 0,10 C0,15.5229167 4.47708333,20 10,20 C15.5229167,20 20,15.5229167 20,10 C20,4.47708333 15.5229167,0 10,0 L10,0 Z" id="Path" fill="#000000"></path>
            <path d="M15,11.8353281 C14.7267791,12.4405131 14.5957364,12.7112729 14.2439222,13.2463776 C13.7531171,13.9935794 13.0610275,14.9240715 12.2034399,14.9320196 C11.4416734,14.9392415 11.2460776,14.4362924 10.2118163,14.4419811 C9.17795849,14.4476699 8.96186708,14.9411378 8.19973738,14.9339159 C7.34251292,14.9259678 6.68657307,14.0856079 6.19540488,13.3384061 C4.8224014,11.2490652 4.67889182,8.79657302 5.52566676,7.49304475 C6.12762413,6.5667485 7.07683675,6.02442205 7.96948467,6.02442205 C8.87839191,6.02442205 9.44984801,6.52281212 10.2012054,6.52281212 C10.9302113,6.52281212 11.3744574,6.02365546 12.424978,6.02365546 C13.2191421,6.02365546 14.0606318,6.45616106 14.6603298,7.20332247 C12.6955764,8.27998696 13.0148317,11.0855038 15,11.8353281 L15,11.8353281 Z M11.6277879,5.18898419 C12.0095386,4.69894569 12.299624,4.00701748 12.1943621,3.29999995 C11.5706181,3.34316981 10.8412087,3.73968704 10.4153601,4.25699923 C10.028889,4.72621939 9.70963373,5.42226287 9.83385802,6.09938423 C10.5147719,6.12024295 11.219167,5.71351826 11.6277879,5.18898419 L11.6277879,5.18898419 Z" id="Shape" fill="#FFFFFF"></path>
        </g>
    </g>
</svg>