<?xml version="1.0" encoding="UTF-8" standalone="no"?>
<svg x="0px" y="0px" id="SoundCloud" viewBox="0 0 20 20" version="1.1" xmlns="http://www.w3.org/2000/svg" xmlns:xlink="http://www.w3.org/1999/xlink">
    <g id="Page-1" stroke="none" stroke-width="1" fill="none" fill-rule="evenodd">
        <g id="soundcloud">
            <path d="M10,0 C4.47708333,0 0,4.47708333 0,10 C0,15.5229167 4.47708333,20 10,20 C15.5229167,20 20,15.5229167 20,10 C20,4.47708333 15.5229167,0 10,0 L10,0 Z" id="Path" fill="#000000"></path>
            <path d="M3.004,11.892 L3.25,10.84125 L3.004,9.756 C2.99725,9.72375 2.935,9.699 2.86075,9.699 C2.78425,9.699 2.72275,9.72375 2.7175,9.756 L2.5,10.84125 L2.71675,11.89125 C2.72275,11.925 2.78425,11.94825 2.86,11.94825 C2.935,11.949 2.99725,11.92575 3.004,11.892 L3.004,11.892 Z M4.54225,12.47475 L4.75,10.85175 L4.54225,8.34075 C4.5355,8.27775 4.45675,8.22675 4.363,8.22675 C4.26775,8.22675 4.18825,8.27775 4.1845,8.34075 L4,10.85175 L4.1845,12.47475 C4.189,12.53925 4.26775,12.58875 4.363,12.58875 C4.45675,12.58875 4.5355,12.53925 4.54225,12.47475 L4.54225,12.47475 Z M6.076,12.4485 L6.25,10.85325 L6.076,7.5105 C6.0715,7.431 5.97925,7.3695 5.8645,7.3695 C5.7505,7.3695 5.65825,7.431 5.65375,7.5105 L5.5,10.85325 L5.65375,12.45 C5.65825,12.52725 5.7505,12.5895 5.8645,12.5895 C5.97925,12.58875 6.0715,12.52725 6.076,12.4485 L6.076,12.4485 Z M7.6075,12.42525 L7.75,10.85325 L7.6075,7.48575 C7.60375,7.3935 7.498,7.32 7.3675,7.32 C7.2355,7.32 7.1305,7.3935 7.12675,7.48575 L7,10.85325 L7.1275,12.42525 C7.1305,12.5175 7.23625,12.591 7.3675,12.591 C7.498,12.59025 7.60375,12.519 7.6075,12.42525 L7.6075,12.42525 Z M9.1375,12.40425 L9.25,10.85475 L9.1375,6.993 C9.1345,6.8865 9.0145,6.80175 8.869,6.80175 C8.7235,6.80175 8.6035,6.888 8.60125,6.99375 L8.5,10.85325 L8.60125,12.40425 C8.6035,12.51 8.7235,12.59625 8.869,12.59625 C9.0145,12.59625 9.1345,12.5115 9.1375,12.40425 L9.1375,12.40425 Z M10.20775,12.59775 C10.21375,12.59775 15.53275,12.60075 15.5665,12.60075 C16.6345,12.60075 17.5,11.763 17.5,10.73025 C17.5,9.6975 16.6345,8.86125 15.5665,8.86125 C15.30175,8.86125 15.04975,8.91375 14.8195,9.006 C14.66575,7.3215 13.20475,6 11.42275,6 C10.987,6 10.56175,6.08325 10.18675,6.22275 C10.03975,6.27825 10.0015,6.33375 10,6.444 L10,12.3765 C10.0015,12.49125 10.093,12.58575 10.20775,12.59775 L10.20775,12.59775 Z" id="Shape" fill="#FFFFFF"></path>
        </g>
    </g>
</svg>